<svg display="none" version="1.1" xmlns="http://www.w3.org/2000/svg">
  <symbol id="java" viewBox="0 0 26 26">
    <path d="M 14.40625 0 C 15.777344 3.308594 9.460938 5.335938 8.875 8.09375 C 8.339844 10.625 12.621094 13.59375 12.625 13.59375 C 11.976563 12.546875 11.496094 11.664063 10.84375 10.03125 C 9.742188 7.273438 17.574219 4.785156 14.40625 0 Z M 18.5625 4.59375 C 18.5625 4.59375 13.0625 4.949219 12.78125 8.625 C 12.65625 10.261719 14.234375 11.121094 14.28125 12.3125 C 14.316406 13.285156 13.3125 14.09375 13.3125 14.09375 C 13.3125 14.09375 15.101563 13.765625 15.65625 12.28125 C 16.269531 10.632813 14.472656 9.507813 14.65625 8.1875 C 14.832031 6.925781 18.5625 4.59375 18.5625 4.59375 Z M 19.90625 13.0625 C 19.328125 13.035156 18.675781 13.253906 18.09375 13.6875 C 19.234375 13.429688 20.21875 14.160156 20.21875 15 C 20.21875 16.882813 17.59375 18.65625 17.59375 18.65625 C 17.59375 18.65625 21.65625 18.191406 21.65625 15.09375 C 21.65625 13.816406 20.867188 13.109375 19.90625 13.0625 Z M 9.09375 13.09375 C 7.671875 13.144531 4.84375 13.382813 4.84375 14.5 C 4.84375 16.054688 11.460938 16.175781 16.1875 15.21875 C 16.1875 15.21875 17.445313 14.304688 17.78125 13.96875 C 14.683594 14.625 7.625 14.726563 7.625 14.15625 C 7.625 13.632813 9.90625 13.09375 9.90625 13.09375 C 9.90625 13.09375 9.566406 13.078125 9.09375 13.09375 Z M 8.6875 15.96875 C 7.910156 15.96875 6.75 16.585938 6.75 17.1875 C 6.75 18.398438 12.585938 19.328125 16.90625 17.5625 L 15.40625 16.625 C 12.476563 17.601563 7.089844 17.277344 8.6875 15.96875 Z M 9.40625 18.6875 C 8.34375 18.6875 7.65625 19.371094 7.65625 19.875 C 7.65625 21.425781 13.984375 21.578125 16.5 20 L 14.90625 18.9375 C 13.027344 19.761719 8.320313 19.882813 9.40625 18.6875 Z M 5.84375 20.09375 C 4.113281 20.058594 3 20.859375 3 21.53125 C 3 25.105469 20.75 24.933594 20.75 21.28125 C 20.75 20.675781 20.058594 20.386719 19.8125 20.25 C 21.261719 23.742188 5.3125 23.46875 5.3125 21.40625 C 5.3125 20.9375 6.476563 20.46875 7.5625 20.6875 L 6.625 20.15625 C 6.355469 20.113281 6.089844 20.097656 5.84375 20.09375 Z M 22.59375 22.5 C 19.898438 25.160156 13.058594 26.113281 6.1875 24.46875 C 13.058594 27.398438 22.5625 25.769531 22.59375 22.5 Z"></path>
  </symbol>
  <symbol id="ruby" viewBox="0 0 24 24">
    <path d="M 13 1 L 8 3 L 4 7 L 1 12 L 1 18 C 1.0625 20.207031 1.949219 21.59375 3.082031 22.277344 C 4.144531 22.917969 5.355469 22.980469 6 23 C 6.042969 23 22.996094 22.996094 22.996094 22.996094 C 22.996094 22.996094 23 6.011719 23 6 C 23.003906 5.496094 22.949219 4.761719 22.820313 4.257813 C 22.429688 2.730469 21.148438 1.367188 19 1 Z M 16.386719 2.855469 L 18.738281 2.855469 C 20.339844 3.132813 20.894531 3.796875 21.09375 4.777344 C 21.261719 5.628906 21.144531 6.503906 21.09375 6.816406 Z M 13 3 L 14.808594 3.949219 L 13.375 8.453125 L 8.8125 13.015625 L 3.933594 13.816406 L 3 12 L 5.332031 8.25 L 9.332031 4.25 Z M 16.328125 5.238281 L 20.117188 8.367188 L 15.355469 8.367188 Z M 15.183594 10.203125 L 19.972656 10.203125 C 19.175781 11.820313 18.101563 13.292969 16.875 14.707031 Z M 13.519531 10.949219 L 15.066406 15.082031 L 10.933594 13.53125 Z M 21.207031 11.753906 L 21.207031 19.902344 L 17.765625 16.457031 C 19.058594 15.015625 20.257813 13.472656 21.207031 11.753906 Z M 8.09375 15.023438 L 7.089844 19.585938 L 4.882813 15.539063 Z M 9.929688 15.109375 L 14.722656 16.886719 C 12.898438 18.511719 10.953125 19.890625 8.695313 20.648438 Z M 2.84375 15.625 L 5.886719 21.191406 C 5.316406 21.164063 4.621094 21.089844 4.078125 20.761719 C 3.453125 20.386719 2.898438 19.746094 2.84375 18.007813 Z M 16.472656 17.804688 L 19.886719 21.21875 L 11.941406 21.21875 C 13.609375 20.277344 15.097656 19.074219 16.472656 17.804688 Z"></path>
  </symbol>
  <symbol id="html" viewBox="0 0 18 20">
    <path d="M0,0 L17.5,0 L15.90875,17.96875 L8.73,20 L1.5925,17.96875 L0,0 L0,0 Z M5.85875,8.125 L5.665,5.86 L14.0475,5.8625 L14.24,3.6775 L3.26,3.675 L3.84125,10.35 L11.44625,10.35 L11.175,13.205 L8.75,13.875 L6.2875,13.2 L6.13125,11.4425 L3.95625,11.4425 L4.23125,14.9175 L8.75,16.125 L13.2325,14.9225 L13.8525,8.125 L5.85875,8.125 L5.85875,8.125 Z" id="Shape"></path>
  </symbol>
  <symbol id="css" viewBox="0 0 20 19">
    <path d="M2.97640653,0 L2.30490018,3.35753176 L15.9709619,3.35753176 L15.5444646,5.52631579 L1.86932849,5.52631579 L1.20689655,8.88384755 L14.8729583,8.88384755 L14.1107078,12.7132486 L8.60254083,14.5372051 L3.82940109,12.7132486 L4.15607985,11.0526316 L0.798548094,11.0526316 L0,15.0816697 L7.89473684,18.1034483 L16.9963702,15.0816697 L18.2032668,9.0199637 L18.4482759,7.80399274 L20,0 L2.97640653,0 Z" id="Shape"></path>
  </symbol>
  <symbol id="python" viewBox="0 0 26 26">
    <path d="M 12.875 1.03125 C 11.855469 1.035156 10.855469 1.132813 10 1.28125 C 7.480469 1.722656 7.03125 2.644531 7.03125 4.34375 L 7.03125 6.96875 L 13.03125 6.96875 L 13.03125 8.03125 L 4.1875 8.03125 C 2.457031 8.03125 0.914063 9.074219 0.4375 11.03125 C -0.109375 13.273438 -0.132813 14.65625 0.4375 17 C 0.863281 18.742188 1.894531 20 3.625 20 L 6 20 L 6 16.71875 C 6 14.773438 7.699219 12.96875 9.71875 12.96875 L 14.96875 12.96875 C 16.625 12.96875 17.96875 11.613281 17.96875 9.96875 L 17.96875 4.34375 C 17.96875 2.746094 16.585938 1.550781 14.96875 1.28125 C 13.945313 1.113281 13.894531 1.027344 12.875 1.03125 Z M 9.5 3.375 C 10.113281 3.375 10.625 3.878906 10.625 4.5 C 10.625 5.117188 10.113281 5.625 9.5 5.625 C 8.882813 5.625 8.375 5.117188 8.375 4.5 C 8.375 3.878906 8.882813 3.375 9.5 3.375 Z M 19 7 L 19 10.28125 C 19 12.226563 17.300781 14.03125 15.28125 14.03125 L 10.03125 14.03125 C 8.375 14.03125 7.03125 15.386719 7.03125 17.03125 L 7.03125 22.65625 C 7.03125 24.253906 8.414063 25.453125 10.03125 25.71875 C 11.054688 25.886719 11.105469 25.976563 12.125 25.96875 C 13.144531 25.964844 14.144531 25.867188 15 25.71875 C 17.519531 25.28125 17.96875 24.355469 17.96875 22.65625 L 17.96875 20.03125 L 11.96875 20.03125 L 11.96875 18.96875 L 20.8125 18.96875 C 22.542969 18.96875 24.085938 17.925781 24.5625 15.96875 C 25.109375 13.726563 25.132813 12.34375 24.5625 10 C 24.136719 8.257813 23.105469 7 21.375 7 Z M 15.5 21.375 C 16.117188 21.375 16.625 21.882813 16.625 22.5 C 16.625 23.121094 16.117188 23.625 15.5 23.625 C 14.886719 23.625 14.375 23.121094 14.375 22.5 C 14.375 21.882813 14.886719 21.375 15.5 21.375 Z"></path>
  </symbol>
  <symbol id="star" viewBox="0 0 16 16">
    <path d="M14 6l-4.9-0.64L7 1 4.9 5.36 0 6l3.6 3.26L2.67 14l4.33-2.33 4.33 2.33L10.4 9.26 14 6z" />
  </symbol>
  <symbol id="fork" viewBox="0 0 10 16">
    <path d="M8 1c-1.11 0-2 0.89-2 2 0 0.73 0.41 1.38 1 1.72v1.28L5 8 3 6v-1.28c0.59-0.34 1-0.98 1-1.72 0-1.11-0.89-2-2-2S0 1.89 0 3c0 0.73 0.41 1.38 1 1.72v1.78l3 3v1.78c-0.59 0.34-1 0.98-1 1.72 0 1.11 0.89 2 2 2s2-0.89 2-2c0-0.73-0.41-1.38-1-1.72V9.5l3-3V4.72c0.59-0.34 1-0.98 1-1.72 0-1.11-0.89-2-2-2zM2 4.2c-0.66 0-1.2-0.55-1.2-1.2s0.55-1.2 1.2-1.2 1.2 0.55 1.2 1.2-0.55 1.2-1.2 1.2z m3 10c-0.66 0-1.2-0.55-1.2-1.2s0.55-1.2 1.2-1.2 1.2 0.55 1.2 1.2-0.55 1.2-1.2 1.2z m3-10c-0.66 0-1.2-0.55-1.2-1.2s0.55-1.2 1.2-1.2 1.2 0.55 1.2 1.2-0.55 1.2-1.2 1.2z" />
  </symbol>
  <symbol id="down" viewBox="0 0 10 16">
    <path d="M7 7V3H3v4H0l5 6 5-6H7z" />
  </symbol>
  <symbol id="octocat" viewBox="0 0 16 16">
    <path d="M8 0C3.58 0 0 3.58 0 8c0 3.54 2.29 6.53 5.47 7.59 0.4 0.07 0.55-0.17 0.55-0.38 0-0.19-0.01-0.82-0.01-1.49-2.01 0.37-2.53-0.49-2.69-0.94-0.09-0.23-0.48-0.94-0.82-1.13-0.28-0.15-0.68-0.52-0.01-0.53 0.63-0.01 1.08 0.58 1.23 0.82 0.72 1.21 1.87 0.87 2.33 0.66 0.07-0.52 0.28-0.87 0.51-1.07-1.78-0.2-3.64-0.89-3.64-3.95 0-0.87 0.31-1.59 0.82-2.15-0.08-0.2-0.36-1.02 0.08-2.12 0 0 0.67-0.21 2.2 0.82 0.64-0.18 1.32-0.27 2-0.27 0.68 0 1.36 0.09 2 0.27 1.53-1.04 2.2-0.82 2.2-0.82 0.44 1.1 0.16 1.92 0.08 2.12 0.51 0.56 0.82 1.27 0.82 2.15 0 3.07-1.87 3.75-3.65 3.95 0.29 0.25 0.54 0.73 0.54 1.48 0 1.07-0.01 1.93-0.01 2.2 0 0.21 0.15 0.46 0.55 0.38C13.71 14.53 16 11.53 16 8 16 3.58 12.42 0 8 0z" />
  </symbol>
  <symbol id="lua" viewBox="0 0 588.599 588.6">
    <path d="M267.439,251.205l-0.377,0.011c-1.87,7.259-3.731,16.487-5.769,23.525l-7.38,25.676l27.886,0.105l-7.977-25.956 C271.555,267.363,269.309,258.367,267.439,251.205z"></path> <path d="M539.573,49.204h-178.2c-0.791,0-1.561,0.076-2.342,0.124V0L11.227,46.417V540.98L359.031,588.6v-50.814 c0.781,0.053,1.551,0.116,2.342,0.116h178.2c20.851,0,37.8-16.965,37.8-37.8V86.999C577.373,66.16,560.423,49.204,539.573,49.204z M107.19,348.648l-59.444-2.342V243.11l20.946-0.933v85.018l38.499,0.907V348.648z M204.098,301.377 c0,35.891-17.729,52.26-46.461,51.089c-26.634-1.086-41.808-16.891-41.808-51.632v-60.756l23.361-1.039v63.825 c0,19.079,6.874,28.962,19.246,29.278c12.912,0.326,20.126-8.976,20.126-29.131v-65.726l25.537-1.134V301.377z M296.053,356.084 l-10.049-32.016l-36.12-0.648l-8.699,30.502l-27.962-1.098l36.661-118.715l37.47-1.667l41.301,124.923L296.053,356.084z M555.773,500.102c0,8.933-7.268,16.199-16.2,16.199h-178.2c-0.802,0-1.571-0.11-2.342-0.231V368.36l24.09,64.673l93.936-35.005 l3.729-13.109l-91.23,33.992l-30.523-81.97V219.902l98.846-36.822l44.951,120.648c0.611-1.561,1.36-3.068,2.352-4.439l2.046-7.162 c0.401-1.294,0.981-2.468,1.667-3.554l-44.561-119.62l-105.301,39.242V71.046c0.771-0.114,1.54-0.243,2.342-0.243h178.2 c8.933,0,16.2,7.27,16.2,16.2V500.102z"></path> <path d="M521.242,339.926l11.386-38.043c0.391-1.308,0.464-2.637,0.29-3.918l2.942-9.039c0.454-1.487-0.158-2.837-1.255-3.953 c0.147-0.287,0.348-0.52,0.453-0.833c0.718-2.289-0.569-4.714-2.857-5.432l-3.85-1.216c-2.278-0.696-4.726,0.567-5.432,2.858 c-0.074,0.222-0.043,0.454-0.074,0.686c-1.413,0.211-2.562,0.82-3.006,2.223l-2.668,9.397c-1.065,1.052-1.915,2.344-2.368,3.881 l-11.401,38.045c-0.585,1.967-0.464,3.971,0.18,5.774l-15.504,54.422c-1.018,3.354-2.985,18.277,0.38,19.312 c3.364,1.012,10.763-12.234,11.791-15.589l17.439-53.715C519.328,343.644,520.62,341.982,521.242,339.926z"></path> <path d="M529.685,352.229c-0.896,2.99-2.437,5.658-4.515,7.905l-0.152,0.464l1.688,4.514l-3.586,1.34l-4.335,13.331l22.043-8.216 l-9.387-25.186L529.685,352.229z"></path> <path d="M440.364,319.465c-2.036-0.664-3.428-2.441-3.565-4.557l-0.363-5.579c-0.148-2.099,0.991-4.05,2.9-4.968 c0.675-0.326,1.191-0.896,1.413-1.561s0.158-1.424-0.158-2.046c-0.971-1.878-0.686-4.182,0.686-5.764l3.681-4.208 c0.928-1.041,2.173-1.655,3.502-1.748l0.938-0.065l1.075,0.34c0.844,0.309,1.54,0.232,2.142-0.076 c0.644-0.316,1.149-0.907,1.36-1.572c0.611-1.917,2.246-3.238,4.208-3.499l-0.248-3.671c-0.031-0.379-0.306-0.73-0.675-0.854 c-3.992-1.252-7.335-4.126-9.181-7.868c-1.861-3.752-2.115-8.164-0.696-12.095c0.132-0.359,0.031-0.783-0.259-1.034l-8.886-7.768 c-0.495-0.433-0.807-0.256-1.07-0.126c-3.676,1.93-8.1,2.281-12.061,0.931c-3.965-1.329-7.251-4.285-9.044-8.068 c-0.152-0.346-0.532-0.567-0.928-0.541l-11.755,0.789c-0.385,0.01-0.728,0.288-0.849,0.643c-1.25,3.995-4.129,7.349-7.868,9.194 c-3.729,1.87-8.179,2.112-12.107,0.675c-0.243-0.073-0.596-0.197-1.028,0.288l-7.773,8.872c-0.253,0.298-0.306,0.728-0.116,1.076 c1.931,3.702,2.268,8.1,0.929,12.062c-1.34,3.963-4.271,7.246-8.063,9.028c-0.358,0.166-0.564,0.53-0.554,0.928l0.791,11.773 c0.021,0.385,0.285,0.717,0.654,0.839c3.997,1.255,7.341,4.129,9.207,7.867c1.846,3.744,2.089,8.18,0.665,12.108 c-0.127,0.358-0.021,0.785,0.273,1.033l8.881,7.773c0.485,0.422,0.812,0.253,1.065,0.11c1.888-0.98,3.955-1.561,6.096-1.703 c2.046-0.137,4.05,0.11,5.98,0.785c3.966,1.34,7.245,4.271,9.028,8.059c0.168,0.343,0.537,0.564,0.928,0.537l11.76-0.78 c0.4-0.026,0.728-0.29,0.844-0.653c1.266-3.998,4.124-7.341,7.879-9.197c3.659-1.804,7.92-2.078,11.76-0.785 c0.021-0.502,0.115-1.008,0.284-1.487c0.253-0.696,0.211-1.456-0.105-2.099C441.634,320.188,441.049,319.676,440.364,319.465z M413.848,312.319c-12.613,0.828-23.556-8.743-24.395-21.357c-0.854-12.614,8.717-23.572,21.342-24.413 c12.63-0.844,23.572,8.754,24.416,21.368C436.055,300.533,426.478,311.476,413.848,312.319z"></path> <path d="M482.888,304.826c-1.893-0.597-3.475-1.957-4.351-3.729c-0.881-1.783-1.002-3.86-0.327-5.729 c0.063-0.167,0.011-0.367-0.126-0.499l-4.192-3.681c-0.243-0.2-0.396-0.113-0.517-0.065c-1.73,0.917-3.855,1.086-5.722,0.453 c-1.878-0.641-3.438-2.035-4.282-3.828c-0.074-0.167-0.253-0.274-0.433-0.264l-5.579,0.377c-0.174,0.021-0.343,0.137-0.385,0.309 c-0.602,1.89-1.962,3.488-3.729,4.369c-1.772,0.88-3.876,0.994-5.732,0.319c-0.121-0.045-0.301-0.108-0.501,0.124l-3.691,4.198 c-0.116,0.142-0.147,0.353-0.063,0.517c0.929,1.761,1.076,3.839,0.454,5.716c-0.644,1.878-2.025,3.438-3.818,4.282 c-0.169,0.074-0.285,0.253-0.274,0.443l0.38,5.568c0.011,0.19,0.132,0.349,0.316,0.401c1.888,0.601,3.48,1.961,4.346,3.733 c0.886,1.767,1.012,3.86,0.337,5.727c-0.063,0.18-0.011,0.369,0.116,0.496l4.219,3.681c0.232,0.2,0.38,0.116,0.496,0.053 c0.896-0.464,1.877-0.738,2.9-0.807c0.959-0.063,1.908,0.079,2.815,0.374c1.878,0.622,3.449,2.025,4.282,3.818 c0.074,0.169,0.264,0.269,0.443,0.258l5.568-0.369c0.174-0.011,0.343-0.132,0.396-0.306c0.596-1.903,1.946-3.485,3.729-4.361 c1.771-0.886,3.876-0.991,5.742-0.326c0.111,0.042,0.29,0.095,0.491-0.116l3.681-4.214c0.11-0.137,0.137-0.343,0.063-0.512 c-0.918-1.75-1.087-3.839-0.443-5.716c0.633-1.888,2.015-3.438,3.818-4.282c0.168-0.084,0.273-0.253,0.264-0.433l-0.369-5.579 C483.2,305.047,483.073,304.884,482.888,304.826z M462.328,320.319c-5.97,0.396-11.159-4.15-11.56-10.125 c-0.391-5.97,4.134-11.169,10.125-11.575c5.964-0.38,11.153,4.16,11.56,10.135C472.853,314.729,468.318,319.908,462.328,320.319z"></path>
  </symbol>
</svg>
