<svg display="none" version="1.1" xmlns="http://www.w3.org/2000/svg">
  <symbol id="java" viewBox="0 0 26 26">
    <path d="M 14.40625 0 C 15.777344 3.308594 9.460938 5.335938 8.875 8.09375 C 8.339844 10.625 12.621094 13.59375 12.625 13.59375 C 11.976563 12.546875 11.496094 11.664063 10.84375 10.03125 C 9.742188 7.273438 17.574219 4.785156 14.40625 0 Z M 18.5625 4.59375 C 18.5625 4.59375 13.0625 4.949219 12.78125 8.625 C 12.65625 10.261719 14.234375 11.121094 14.28125 12.3125 C 14.316406 13.285156 13.3125 14.09375 13.3125 14.09375 C 13.3125 14.09375 15.101563 13.765625 15.65625 12.28125 C 16.269531 10.632813 14.472656 9.507813 14.65625 8.1875 C 14.832031 6.925781 18.5625 4.59375 18.5625 4.59375 Z M 19.90625 13.0625 C 19.328125 13.035156 18.675781 13.253906 18.09375 13.6875 C 19.234375 13.429688 20.21875 14.160156 20.21875 15 C 20.21875 16.882813 17.59375 18.65625 17.59375 18.65625 C 17.59375 18.65625 21.65625 18.191406 21.65625 15.09375 C 21.65625 13.816406 20.867188 13.109375 19.90625 13.0625 Z M 9.09375 13.09375 C 7.671875 13.144531 4.84375 13.382813 4.84375 14.5 C 4.84375 16.054688 11.460938 16.175781 16.1875 15.21875 C 16.1875 15.21875 17.445313 14.304688 17.78125 13.96875 C 14.683594 14.625 7.625 14.726563 7.625 14.15625 C 7.625 13.632813 9.90625 13.09375 9.90625 13.09375 C 9.90625 13.09375 9.566406 13.078125 9.09375 13.09375 Z M 8.6875 15.96875 C 7.910156 15.96875 6.75 16.585938 6.75 17.1875 C 6.75 18.398438 12.585938 19.328125 16.90625 17.5625 L 15.40625 16.625 C 12.476563 17.601563 7.089844 17.277344 8.6875 15.96875 Z M 9.40625 18.6875 C 8.34375 18.6875 7.65625 19.371094 7.65625 19.875 C 7.65625 21.425781 13.984375 21.578125 16.5 20 L 14.90625 18.9375 C 13.027344 19.761719 8.320313 19.882813 9.40625 18.6875 Z M 5.84375 20.09375 C 4.113281 20.058594 3 20.859375 3 21.53125 C 3 25.105469 20.75 24.933594 20.75 21.28125 C 20.75 20.675781 20.058594 20.386719 19.8125 20.25 C 21.261719 23.742188 5.3125 23.46875 5.3125 21.40625 C 5.3125 20.9375 6.476563 20.46875 7.5625 20.6875 L 6.625 20.15625 C 6.355469 20.113281 6.089844 20.097656 5.84375 20.09375 Z M 22.59375 22.5 C 19.898438 25.160156 13.058594 26.113281 6.1875 24.46875 C 13.058594 27.398438 22.5625 25.769531 22.59375 22.5 Z"></path>
  </symbol>
  <symbol id="ruby" viewBox="0 0 24 24">
    <path d="M 13 1 L 8 3 L 4 7 L 1 12 L 1 18 C 1.0625 20.207031 1.949219 21.59375 3.082031 22.277344 C 4.144531 22.917969 5.355469 22.980469 6 23 C 6.042969 23 22.996094 22.996094 22.996094 22.996094 C 22.996094 22.996094 23 6.011719 23 6 C 23.003906 5.496094 22.949219 4.761719 22.820313 4.257813 C 22.429688 2.730469 21.148438 1.367188 19 1 Z M 16.386719 2.855469 L 18.738281 2.855469 C 20.339844 3.132813 20.894531 3.796875 21.09375 4.777344 C 21.261719 5.628906 21.144531 6.503906 21.09375 6.816406 Z M 13 3 L 14.808594 3.949219 L 13.375 8.453125 L 8.8125 13.015625 L 3.933594 13.816406 L 3 12 L 5.332031 8.25 L 9.332031 4.25 Z M 16.328125 5.238281 L 20.117188 8.367188 L 15.355469 8.367188 Z M 15.183594 10.203125 L 19.972656 10.203125 C 19.175781 11.820313 18.101563 13.292969 16.875 14.707031 Z M 13.519531 10.949219 L 15.066406 15.082031 L 10.933594 13.53125 Z M 21.207031 11.753906 L 21.207031 19.902344 L 17.765625 16.457031 C 19.058594 15.015625 20.257813 13.472656 21.207031 11.753906 Z M 8.09375 15.023438 L 7.089844 19.585938 L 4.882813 15.539063 Z M 9.929688 15.109375 L 14.722656 16.886719 C 12.898438 18.511719 10.953125 19.890625 8.695313 20.648438 Z M 2.84375 15.625 L 5.886719 21.191406 C 5.316406 21.164063 4.621094 21.089844 4.078125 20.761719 C 3.453125 20.386719 2.898438 19.746094 2.84375 18.007813 Z M 16.472656 17.804688 L 19.886719 21.21875 L 11.941406 21.21875 C 13.609375 20.277344 15.097656 19.074219 16.472656 17.804688 Z"></path>
  </symbol>
  <symbol id="html" viewBox="0 0 18 20">
    <path d="M0,0 L17.5,0 L15.90875,17.96875 L8.73,20 L1.5925,17.96875 L0,0 L0,0 Z M5.85875,8.125 L5.665,5.86 L14.0475,5.8625 L14.24,3.6775 L3.26,3.675 L3.84125,10.35 L11.44625,10.35 L11.175,13.205 L8.75,13.875 L6.2875,13.2 L6.13125,11.4425 L3.95625,11.4425 L4.23125,14.9175 L8.75,16.125 L13.2325,14.9225 L13.8525,8.125 L5.85875,8.125 L5.85875,8.125 Z" id="Shape"></path>
  </symbol>
  <symbol id="css" viewBox="0 0 20 19">
    <path d="M2.97640653,0 L2.30490018,3.35753176 L15.9709619,3.35753176 L15.5444646,5.52631579 L1.86932849,5.52631579 L1.20689655,8.88384755 L14.8729583,8.88384755 L14.1107078,12.7132486 L8.60254083,14.5372051 L3.82940109,12.7132486 L4.15607985,11.0526316 L0.798548094,11.0526316 L0,15.0816697 L7.89473684,18.1034483 L16.9963702,15.0816697 L18.2032668,9.0199637 L18.4482759,7.80399274 L20,0 L2.97640653,0 Z" id="Shape"></path>
  </symbol>
  <symbol id="python" viewBox="0 0 26 26">
    <path d="M 12.875 1.03125 C 11.855469 1.035156 10.855469 1.132813 10 1.28125 C 7.480469 1.722656 7.03125 2.644531 7.03125 4.34375 L 7.03125 6.96875 L 13.03125 6.96875 L 13.03125 8.03125 L 4.1875 8.03125 C 2.457031 8.03125 0.914063 9.074219 0.4375 11.03125 C -0.109375 13.273438 -0.132813 14.65625 0.4375 17 C 0.863281 18.742188 1.894531 20 3.625 20 L 6 20 L 6 16.71875 C 6 14.773438 7.699219 12.96875 9.71875 12.96875 L 14.96875 12.96875 C 16.625 12.96875 17.96875 11.613281 17.96875 9.96875 L 17.96875 4.34375 C 17.96875 2.746094 16.585938 1.550781 14.96875 1.28125 C 13.945313 1.113281 13.894531 1.027344 12.875 1.03125 Z M 9.5 3.375 C 10.113281 3.375 10.625 3.878906 10.625 4.5 C 10.625 5.117188 10.113281 5.625 9.5 5.625 C 8.882813 5.625 8.375 5.117188 8.375 4.5 C 8.375 3.878906 8.882813 3.375 9.5 3.375 Z M 19 7 L 19 10.28125 C 19 12.226563 17.300781 14.03125 15.28125 14.03125 L 10.03125 14.03125 C 8.375 14.03125 7.03125 15.386719 7.03125 17.03125 L 7.03125 22.65625 C 7.03125 24.253906 8.414063 25.453125 10.03125 25.71875 C 11.054688 25.886719 11.105469 25.976563 12.125 25.96875 C 13.144531 25.964844 14.144531 25.867188 15 25.71875 C 17.519531 25.28125 17.96875 24.355469 17.96875 22.65625 L 17.96875 20.03125 L 11.96875 20.03125 L 11.96875 18.96875 L 20.8125 18.96875 C 22.542969 18.96875 24.085938 17.925781 24.5625 15.96875 C 25.109375 13.726563 25.132813 12.34375 24.5625 10 C 24.136719 8.257813 23.105469 7 21.375 7 Z M 15.5 21.375 C 16.117188 21.375 16.625 21.882813 16.625 22.5 C 16.625 23.121094 16.117188 23.625 15.5 23.625 C 14.886719 23.625 14.375 23.121094 14.375 22.5 C 14.375 21.882813 14.886719 21.375 15.5 21.375 Z"></path>
  </symbol>
  <symbol id="star" viewBox="0 0 16 16">
    <path d="M14 6l-4.9-0.64L7 1 4.9 5.36 0 6l3.6 3.26L2.67 14l4.33-2.33 4.33 2.33L10.4 9.26 14 6z" />
  </symbol>
  <symbol id="fork" viewBox="0 0 10 16">
    <path d="M8 1c-1.11 0-2 0.89-2 2 0 0.73 0.41 1.38 1 1.72v1.28L5 8 3 6v-1.28c0.59-0.34 1-0.98 1-1.72 0-1.11-0.89-2-2-2S0 1.89 0 3c0 0.73 0.41 1.38 1 1.72v1.78l3 3v1.78c-0.59 0.34-1 0.98-1 1.72 0 1.11 0.89 2 2 2s2-0.89 2-2c0-0.73-0.41-1.38-1-1.72V9.5l3-3V4.72c0.59-0.34 1-0.98 1-1.72 0-1.11-0.89-2-2-2zM2 4.2c-0.66 0-1.2-0.55-1.2-1.2s0.55-1.2 1.2-1.2 1.2 0.55 1.2 1.2-0.55 1.2-1.2 1.2z m3 10c-0.66 0-1.2-0.55-1.2-1.2s0.55-1.2 1.2-1.2 1.2 0.55 1.2 1.2-0.55 1.2-1.2 1.2z m3-10c-0.66 0-1.2-0.55-1.2-1.2s0.55-1.2 1.2-1.2 1.2 0.55 1.2 1.2-0.55 1.2-1.2 1.2z" />
  </symbol>
  <symbol id="down" viewBox="0 0 10 16">
    <path d="M7 7V3H3v4H0l5 6 5-6H7z" />
  </symbol>
  <symbol id="octocat" viewBox="0 0 16 16">
    <path d="M8 0C3.58 0 0 3.58 0 8c0 3.54 2.29 6.53 5.47 7.59 0.4 0.07 0.55-0.17 0.55-0.38 0-0.19-0.01-0.82-0.01-1.49-2.01 0.37-2.53-0.49-2.69-0.94-0.09-0.23-0.48-0.94-0.82-1.13-0.28-0.15-0.68-0.52-0.01-0.53 0.63-0.01 1.08 0.58 1.23 0.82 0.72 1.21 1.87 0.87 2.33 0.66 0.07-0.52 0.28-0.87 0.51-1.07-1.78-0.2-3.64-0.89-3.64-3.95 0-0.87 0.31-1.59 0.82-2.15-0.08-0.2-0.36-1.02 0.08-2.12 0 0 0.67-0.21 2.2 0.82 0.64-0.18 1.32-0.27 2-0.27 0.68 0 1.36 0.09 2 0.27 1.53-1.04 2.2-0.82 2.2-0.82 0.44 1.1 0.16 1.92 0.08 2.12 0.51 0.56 0.82 1.27 0.82 2.15 0 3.07-1.87 3.75-3.65 3.95 0.29 0.25 0.54 0.73 0.54 1.48 0 1.07-0.01 1.93-0.01 2.2 0 0.21 0.15 0.46 0.55 0.38C13.71 14.53 16 11.53 16 8 16 3.58 12.42 0 8 0z" />
  </symbol>
  <symbol id="lua" viewBox="0 0 360 360">
    <path d="M344.877,124.383h-49.755V77.834L212.1,0H15.123v360h280v-52.89h49.755V124.383z M314.877,277.11h-210
  		V154.383h210V277.11z"/>
  	<polygon points="173.997,233.41 140.692,233.41 140.692,179.223 127.997,179.223 127.997,244.543 173.997,244.543
  			"/>
  	<path d="M183.197,235.112c2.268,2.976,5.228,5.368,8.878,7.177c3.648,1.809,8.08,2.713,13.294,2.713
  		c5.028,0,9.353-0.857,12.972-2.576c3.618-1.716,6.578-4.047,8.878-6.991c2.3-2.944,3.986-6.378,5.06-10.304
  		c1.072-3.925,1.61-8.127,1.61-12.605v-33.304h-12.604v33.304c0,2.7-0.262,5.321-0.782,7.866c-0.521,2.546-1.412,4.8-2.668,6.762
  		c-1.258,1.964-2.914,3.559-4.968,4.784c-2.056,1.227-4.586,1.84-7.59,1.84c-2.944,0-5.428-0.598-7.452-1.794
  		c-2.024-1.195-3.665-2.774-4.922-4.738c-1.258-1.962-2.148-4.216-2.668-6.762c-0.522-2.545-0.782-5.197-0.782-7.958v-33.304
  		h-12.696v33.304c0,4.231,0.506,8.312,1.518,12.236C179.287,228.689,180.927,232.139,183.197,235.112z"/>
  	<path d="M256.613,228.258h22.816l6.072,16.285h13.064l-24.84-65.32h-11.224l-24.932,65.32h13.064L256.613,228.258z
  		 M268.113,193.666l9.016,25.668h-18.4L268.113,193.666z"/>
  </symbol>
</svg>
