<?xml version="1.0" encoding="iso-8859-1"?>
<!-- Generator: Adobe Illustrator 19.0.0, SVG Export Plug-In . SVG Version: 6.00 Build 0)  -->
<svg version="1.1" id="Capa_1" xmlns="http://www.w3.org/2000/svg" xmlns:xlink="http://www.w3.org/1999/xlink" x="0px" y="0px"
	 viewBox="0 0 360 360" style="enable-background:new 0 0 360 360;" xml:space="preserve">
<g id="XMLID_469_">
	<path id="XMLID_470_" d="M344.877,124.383h-49.755V77.834L212.1,0H15.123v360h280v-52.89h49.755V124.383z M314.877,277.11h-210
		V154.383h210V277.11z"/>
	<polygon id="XMLID_474_" points="173.997,233.41 140.692,233.41 140.692,179.223 127.997,179.223 127.997,244.543 173.997,244.543 
			"/>
	<path id="XMLID_475_" d="M183.197,235.112c2.268,2.976,5.228,5.368,8.878,7.177c3.648,1.809,8.08,2.713,13.294,2.713
		c5.028,0,9.353-0.857,12.972-2.576c3.618-1.716,6.578-4.047,8.878-6.991c2.3-2.944,3.986-6.378,5.06-10.304
		c1.072-3.925,1.61-8.127,1.61-12.605v-33.304h-12.604v33.304c0,2.7-0.262,5.321-0.782,7.866c-0.521,2.546-1.412,4.8-2.668,6.762
		c-1.258,1.964-2.914,3.559-4.968,4.784c-2.056,1.227-4.586,1.84-7.59,1.84c-2.944,0-5.428-0.598-7.452-1.794
		c-2.024-1.195-3.665-2.774-4.922-4.738c-1.258-1.962-2.148-4.216-2.668-6.762c-0.522-2.545-0.782-5.197-0.782-7.958v-33.304
		h-12.696v33.304c0,4.231,0.506,8.312,1.518,12.236C179.287,228.689,180.927,232.139,183.197,235.112z"/>
	<path id="XMLID_476_" d="M256.613,228.258h22.816l6.072,16.285h13.064l-24.84-65.32h-11.224l-24.932,65.32h13.064L256.613,228.258z
		 M268.113,193.666l9.016,25.668h-18.4L268.113,193.666z"/>
</g>
<g>
</g>
<g>
</g>
<g>
</g>
<g>
</g>
<g>
</g>
<g>
</g>
<g>
</g>
<g>
</g>
<g>
</g>
<g>
</g>
<g>
</g>
<g>
</g>
<g>
</g>
<g>
</g>
<g>
</g>
</svg>
