<svg height="512pt" viewBox="-27 0 512 512" width="512pt" xmlns="http://www.w3.org/2000/svg"><path d="m90.707031 159.136719 123.472657-71.285157v-87.851562l-199.554688 115.210938zm0 0"/><path d="m75.660156 327.773438v-142.570313l-75.660156-43.683594v229.9375zm0 0"/><path d="m352.699219 185.203125-123.472657-71.289063-123.46875 71.289063v142.570313l123.46875 71.285156 123.472657-71.285156zm0 0"/><path d="m244.277344 0v87.851562l123.46875 71.285157 76.082031-43.925781zm0 0"/><path d="m382.796875 185.203125v142.570313l75.65625 43.683593v-229.9375zm0 0"/><path d="m214.179688 425.125-123.472657-71.285156-75.234375 43.4375 198.707032 114.722656zm0 0"/><path d="m367.746094 353.839844-123.46875 71.285156v86.875l198.707031-114.722656zm0 0"/></svg>